<mxfile host="app.diagrams.net" modified="2022-09-08T09:49:53.294Z" agent="5.0 (Windows NT 10.0; Win64; x64) AppleWebKit/537.36 (KHTML, like Gecko) Chrome/103.0.0.0 Safari/537.36" etag="-bLlZ5Xi5Mpl6pr5lXtG" version="20.3.0" type="github">
  <diagram id="TzTMpk9HUWuBJuqdV4dh" name="第 1 页">
    <mxGraphModel dx="2048" dy="1108" grid="0" gridSize="10" guides="1" tooltips="1" connect="1" arrows="1" fold="1" page="1" pageScale="1" pageWidth="827" pageHeight="1169" math="0" shadow="0">
      <root>
        <mxCell id="0" />
        <mxCell id="1" parent="0" />
        <mxCell id="1_WiFFbNXaO6_s0Ykqal-1" value="&lt;font style=&quot;font-size: 24px;&quot;&gt;datahub模块&lt;/font&gt;" style="rounded=1;whiteSpace=wrap;html=1;" vertex="1" parent="1">
          <mxGeometry x="465" y="507" width="244" height="78" as="geometry" />
        </mxCell>
        <mxCell id="1_WiFFbNXaO6_s0Ykqal-11" style="edgeStyle=orthogonalEdgeStyle;rounded=0;orthogonalLoop=1;jettySize=auto;html=1;fontSize=24;" edge="1" parent="1" source="1_WiFFbNXaO6_s0Ykqal-2" target="1_WiFFbNXaO6_s0Ykqal-10">
          <mxGeometry relative="1" as="geometry" />
        </mxCell>
        <mxCell id="1_WiFFbNXaO6_s0Ykqal-2" value="&lt;font style=&quot;font-size: 24px;&quot;&gt;COS&lt;/font&gt;" style="rounded=1;whiteSpace=wrap;html=1;" vertex="1" parent="1">
          <mxGeometry x="176.5" y="250" width="231" height="78" as="geometry" />
        </mxCell>
        <mxCell id="1_WiFFbNXaO6_s0Ykqal-3" value="&lt;font style=&quot;font-size: 24px;&quot;&gt;CI万象&lt;/font&gt;" style="rounded=1;whiteSpace=wrap;html=1;" vertex="1" parent="1">
          <mxGeometry x="474" y="349" width="231" height="78" as="geometry" />
        </mxCell>
        <mxCell id="1_WiFFbNXaO6_s0Ykqal-12" style="edgeStyle=orthogonalEdgeStyle;rounded=0;orthogonalLoop=1;jettySize=auto;html=1;entryX=0;entryY=0.5;entryDx=0;entryDy=0;fontSize=24;" edge="1" parent="1" source="1_WiFFbNXaO6_s0Ykqal-10" target="1_WiFFbNXaO6_s0Ykqal-1">
          <mxGeometry relative="1" as="geometry">
            <Array as="points">
              <mxPoint x="292" y="541" />
            </Array>
          </mxGeometry>
        </mxCell>
        <mxCell id="1_WiFFbNXaO6_s0Ykqal-10" value="工作流" style="rounded=1;whiteSpace=wrap;html=1;fontSize=24;" vertex="1" parent="1">
          <mxGeometry x="232" y="411" width="120" height="60" as="geometry" />
        </mxCell>
        <mxCell id="1_WiFFbNXaO6_s0Ykqal-13" value="" style="endArrow=classic;html=1;rounded=0;fontSize=24;entryX=0.25;entryY=0;entryDx=0;entryDy=0;" edge="1" parent="1" target="1_WiFFbNXaO6_s0Ykqal-3">
          <mxGeometry width="50" height="50" relative="1" as="geometry">
            <mxPoint x="532" y="253" as="sourcePoint" />
            <mxPoint x="551" y="530" as="targetPoint" />
          </mxGeometry>
        </mxCell>
        <mxCell id="1_WiFFbNXaO6_s0Ykqal-14" value="&lt;div style=&quot;text-align: center;&quot;&gt;&lt;span style=&quot;background-color: initial;&quot;&gt;方式一：创建资源时插入&lt;/span&gt;&lt;/div&gt;" style="text;whiteSpace=wrap;html=1;fontSize=24;" vertex="1" parent="1">
          <mxGeometry x="169" y="554" width="283" height="51" as="geometry" />
        </mxCell>
        <mxCell id="1_WiFFbNXaO6_s0Ykqal-15" value="" style="endArrow=classic;html=1;rounded=0;fontSize=24;entryX=0.75;entryY=0;entryDx=0;entryDy=0;" edge="1" parent="1" target="1_WiFFbNXaO6_s0Ykqal-3">
          <mxGeometry width="50" height="50" relative="1" as="geometry">
            <mxPoint x="647" y="249" as="sourcePoint" />
            <mxPoint x="599.5" y="359" as="targetPoint" />
          </mxGeometry>
        </mxCell>
        <mxCell id="1_WiFFbNXaO6_s0Ykqal-16" value="" style="endArrow=classic;html=1;rounded=0;fontSize=24;entryX=0.5;entryY=0;entryDx=0;entryDy=0;" edge="1" parent="1" target="1_WiFFbNXaO6_s0Ykqal-2">
          <mxGeometry width="50" height="50" relative="1" as="geometry">
            <mxPoint x="292" y="180" as="sourcePoint" />
            <mxPoint x="541.75" y="359" as="targetPoint" />
          </mxGeometry>
        </mxCell>
        <mxCell id="1_WiFFbNXaO6_s0Ykqal-17" value="" style="endArrow=classic;html=1;rounded=0;fontSize=24;entryX=0.28;entryY=0.026;entryDx=0;entryDy=0;entryPerimeter=0;exitX=0.25;exitY=1;exitDx=0;exitDy=0;" edge="1" parent="1" source="1_WiFFbNXaO6_s0Ykqal-3" target="1_WiFFbNXaO6_s0Ykqal-1">
          <mxGeometry width="50" height="50" relative="1" as="geometry">
            <mxPoint x="542" y="263" as="sourcePoint" />
            <mxPoint x="541.75" y="359" as="targetPoint" />
          </mxGeometry>
        </mxCell>
        <mxCell id="1_WiFFbNXaO6_s0Ykqal-18" value="" style="endArrow=classic;html=1;rounded=0;fontSize=24;entryX=0.75;entryY=0;entryDx=0;entryDy=0;exitX=0.75;exitY=1;exitDx=0;exitDy=0;" edge="1" parent="1" source="1_WiFFbNXaO6_s0Ykqal-3" target="1_WiFFbNXaO6_s0Ykqal-1">
          <mxGeometry width="50" height="50" relative="1" as="geometry">
            <mxPoint x="658" y="421" as="sourcePoint" />
            <mxPoint x="657.25" y="359" as="targetPoint" />
          </mxGeometry>
        </mxCell>
        <mxCell id="1_WiFFbNXaO6_s0Ykqal-19" value="&lt;div style=&quot;text-align: center;&quot;&gt;&lt;span style=&quot;background-color: initial;&quot;&gt;方式二：调用api插入或更新&lt;/span&gt;&lt;/div&gt;" style="text;whiteSpace=wrap;html=1;fontSize=24;" vertex="1" parent="1">
          <mxGeometry x="360" y="168" width="305" height="51" as="geometry" />
        </mxCell>
        <mxCell id="1_WiFFbNXaO6_s0Ykqal-20" value="&lt;div style=&quot;text-align: center;&quot;&gt;&lt;span style=&quot;background-color: initial;&quot;&gt;方式三：万象AI处理时更新&lt;/span&gt;&lt;/div&gt;" style="text;whiteSpace=wrap;html=1;fontSize=24;" vertex="1" parent="1">
          <mxGeometry x="534" y="214" width="305" height="51" as="geometry" />
        </mxCell>
      </root>
    </mxGraphModel>
  </diagram>
</mxfile>
